# xmcd
#
# Track frame offsets:
#	150
#	13717
#	25065
#	47250
#	60847
#	75655
#	95070
#	107977
#	129480
#	139070
#	150687
#	163150
#	174255
#	200385
#	215515
#	246977
#	263162
#	282797
#
# Disc length: 4011
#
# Revision: 1
# Processed by: cddbd v1.5.1PL0 Copyright (c) Steve Scherf et al.
# Submitted via: CDex 1.50
# Normalized: r0:DSETVAR1
#
DISCID=f00fa912
DTITLE=Various Artist - Club Salsa
DYEAR=1998
DGENRE=Salsa
TTITLE0=Noro Morales - Maracaibo
TTITLE1=Perez Prado and Benny More - Babarabatiri
TTITLE2=Hilton Ruiz - Mambo Inn
TTITLE3=Vicentico Valdes and Tito Puente - Cao Cao Mani Picao
TTITLE4=Benny More - De La Rumba Al Cha Cha Cha
TTITLE5=Radeunda Lima - Mi Tierra Es Asi
TTITLE6=Benny More Y Su Banda Gigante - Pongan Atencion
TTITLE7=NG La Banda - Te Confunde
TTITLE8=Tito Puente - Take The 'a' Train
TTITLE9=Henry Mancini - Mambo Parisiene
TTITLE10=Henry Mancini - Rain Drops In Rio
TTITLE11=Perez Prado And His orchestra - Cherry Pink And Apple Blossom White
TTITLE12=David Calzado Y Su Charanga Habanera - Me Sube La Fiebre
TTITLE13=Benny More - Que Bueno Baila Usted
TTITLE14=Adalberto Alvarez - Por Eso Te Llaman Gil
TTITLE15=Celina Gonzales Y El Conjunto Campo Alegre - Adorada Guajira
TTITLE16=Merceditas Valdes - Facundo
TTITLE17=Pachito Alonso Y Sus Kini Kini - Ayudame Protegeme, La Musica Nuestra Musica
EXTD=YEAR: 1998
EXTT0=
EXTT1=
EXTT2=
EXTT3=
EXTT4=
EXTT5=
EXTT6=
EXTT7=
EXTT8=
EXTT9=
EXTT10=
EXTT11=
EXTT12=
EXTT13=
EXTT14=
EXTT15=
EXTT16=
EXTT17=
PLAYORDER=
